<?xml version="1.0" standalone="no"?>
<!DOCTYPE svg PUBLIC "-//W3C//DTD SVG 20010904//EN"
 "http://www.w3.org/TR/2001/REC-SVG-20010904/DTD/svg10.dtd">
<svg version="1.0" xmlns="http://www.w3.org/2000/svg"
 width="260.000000pt" height="260.000000pt" viewBox="0 0 260.000000 260.000000"
 preserveAspectRatio="xMidYMid meet">
<metadata>
Created by potrace 1.11, written by Peter Selinger 2001-2013
</metadata>
<g transform="translate(0.000000,260.000000) scale(0.100000,-0.100000)"
fill="#000000" stroke="none">
<path d="M420 1380 l0 -1170 75 0 75 0 0 -75 0 -75 810 0 810 0 0 1170 0 1170
-75 0 -75 0 0 75 0 75 -810 0 -810 0 0 -1170z m1590 1080 l0 -60 -720 0 -720
0 0 -1080 0 -1080 -60 0 -60 0 0 1140 0 1140 780 0 780 0 0 -60z m0 -1155 l0
-1065 -705 0 -705 0 0 1065 0 1065 705 0 705 0 0 -1065z m150 -75 l0 -1140
-780 0 -780 0 0 60 0 60 720 0 720 0 0 1080 0 1080 60 0 60 0 0 -1140z"/>
<path d="M1255 1841 c-195 -51 -295 -228 -220 -389 24 -51 86 -122 109 -122 6
0 4 -6 -4 -13 -8 -7 -39 -37 -68 -68 -62 -66 -61 -86 1 -87 38 -1 46 4 99 60
l57 61 98 -38 c193 -75 238 -122 238 -256 0 -65 -4 -81 -27 -116 -32 -48 -110
-90 -178 -95 -42 -4 -45 -6 -46 -33 -1 -48 13 -58 73 -50 110 14 203 79 246
174 17 36 22 65 22 131 0 75 -3 90 -27 130 -15 25 -36 54 -45 65 -32 37 -114
87 -197 120 -44 18 -80 37 -78 42 2 4 74 80 161 168 86 88 161 166 165 173 15
24 -77 96 -164 130 -43 16 -174 24 -215 13z m226 -112 c33 -16 37 -22 27 -33
-7 -8 -78 -79 -157 -160 -155 -157 -151 -155 -203 -99 -86 91 -54 238 66 300
68 35 191 31 267 -8z"/>
</g>
</svg>
